<svg width="74" height="86" viewBox="0 0 74 86" fill="none" xmlns="http://www.w3.org/2000/svg">
<path d="M72.2767 85.3014H1.72329C0.709589 85.3014 0 84.5433 0 83.6903V71.37C0 55.4484 13.6849 42.6543 30.7151 42.6543H43.3863C60.3151 42.6543 74 55.4484 74 71.37V83.6903C74 84.5433 73.189 85.3014 72.2767 85.3014ZM3.0411 82.4583H70.9589V71.0857C70.9589 57.0596 58.5918 45.4974 43.589 45.4974H30.411C15.4082 45.4974 3.0411 57.8177 3.0411 71.8439V82.4583Z" fill="#F05454"/>
<path d="M36.7978 39.337C25.1403 39.337 15.7129 30.5232 15.7129 19.6245C15.7129 8.72581 25.2417 0.00683594 36.7978 0.00683594C48.354 0.00683594 57.8828 8.82058 57.8828 19.7193C57.8828 30.618 48.4554 39.337 36.7978 39.337ZM36.7978 3.32384C27.1677 3.32384 19.2608 10.6212 19.2608 19.7193C19.2608 28.8173 27.1677 36.1147 36.7978 36.1147C46.428 36.1147 54.3348 28.7226 54.3348 19.7193C54.3348 10.716 46.5293 3.32384 36.7978 3.32384Z" fill="#F05454"/>
</svg>
