<svg width="34" height="34" viewBox="0 0 34 34" fill="none" xmlns="http://www.w3.org/2000/svg">
<path d="M14.2492 21.0829L12.6743 22.7338L13.0877 23.1704L3.03466 33.6722L0.825897 31.3673L10.8758 20.8573L11.2891 21.2862L12.8687 19.6353C9.29659 15.2023 9.29659 8.72002 12.8687 4.28293C16.9219 -0.755811 24.1194 -1.40989 28.9429 2.83574C33.7622 7.07324 34.3848 14.5933 30.3277 19.6357C26.2703 24.6781 19.0731 25.3281 14.2492 21.0829ZM30.7224 11.9575C30.7224 6.69355 26.637 2.41337 21.5976 2.41337C16.5587 2.41337 12.4682 6.69315 12.4682 11.9575C12.4682 17.2255 16.5587 21.5045 21.5976 21.5045C26.6374 21.5045 30.7224 17.2259 30.7224 11.9575Z" fill="#30475E"/>
</svg>
