<svg width="107" height="96" viewBox="0 0 107 96" fill="none" xmlns="http://www.w3.org/2000/svg">
<path fill-rule="evenodd" clip-rule="evenodd" d="M25.8208 7.92334H4.45801V15.84H18.8067L31.1509 66.0222H31.208V67.2983H89.1664V66.3163L98.9444 28.075L100.45 23.7567H29.6708L27.128 13.4196L25.8208 7.92334ZM89.1079 31.6733H31.6182L38.4341 59.3817H82.0232L89.1079 31.6733Z" fill="#F05454"/>
<path d="M44.5837 87.0907C49.5083 87.0907 53.5003 83.5464 53.5003 79.174C53.5003 74.8016 49.5083 71.2573 44.5837 71.2573C39.6591 71.2573 35.667 74.8016 35.667 79.174C35.667 83.5464 39.6591 87.0907 44.5837 87.0907Z" fill="#F05454"/>
<path d="M84.7084 79.174C84.7084 83.5464 80.7164 87.0907 75.7917 87.0907C70.867 87.0907 66.875 83.5464 66.875 79.174C66.875 74.8016 70.867 71.2573 75.7917 71.2573C80.7164 71.2573 84.7084 74.8016 84.7084 79.174Z" fill="#F05454"/>
</svg>
