<svg width="53" height="35" viewBox="0 0 53 35" fill="none" xmlns="http://www.w3.org/2000/svg">
<path fill-rule="evenodd" clip-rule="evenodd" d="M36.0297 0.861813C45.2832 0.885334 52.7663 8.4122 52.7427 17.6657C52.7192 26.9193 45.198 34.408 35.9445 34.3845C35.2428 34.3827 34.5469 34.3353 33.8682 34.248L19.3489 34.2111C18.0425 34.2078 16.9784 33.1382 16.9817 31.8318C16.985 30.5253 18.0546 29.4555 19.361 29.4588L20.1768 29.4609C21.3178 29.4638 22.2783 28.6561 22.5093 27.5841C22.5439 27.4245 22.5614 27.2591 22.5619 27.0936C22.564 26.2721 22.1436 25.5408 21.5001 25.1113L21.4773 25.0941L21.4716 25.0941L21.4545 25.0826L21.4374 25.0712L21.4203 25.0597L21.4146 25.054L21.3975 25.0483L21.3804 25.0368L21.3691 25.0254L21.3634 25.0254L21.3463 25.0139L21.3235 25.0024L21.3064 24.9967L21.2893 24.9852L21.2836 24.9795L21.2665 24.9738L21.2494 24.9623L21.2437 24.9623L21.238 24.9566L21.1981 24.9394L21.1924 24.9336L21.1696 24.9279L21.1525 24.9221L21.1525 24.9164L21.1127 24.8992L21.0956 24.8935L21.0728 24.882L21.0671 24.882L21.0272 24.8648L21.0215 24.8648L21.0158 24.859L20.9816 24.8475L20.9759 24.8475L20.9702 24.8475L20.9303 24.8303L20.8904 24.8188L20.8847 24.8188L20.879 24.813L20.8391 24.8015C20.6338 24.744 20.4171 24.7092 20.1889 24.7086L19.9151 24.7079L14.1017 24.6931L14.0674 24.693C12.761 24.6897 11.6969 23.6202 11.7002 22.3137C11.7035 21.0073 12.7731 19.9374 14.0795 19.9408L17.5196 19.9495C18.2214 19.9513 18.8554 19.6448 19.2959 19.1553C19.6735 18.7398 19.9031 18.187 19.9047 17.5823C19.9062 16.9775 19.6737 16.4236 19.304 16.0004C18.8659 15.5144 18.2334 15.2047 17.5317 15.2029L11.4387 15.1874L11.4102 15.1874C10.1038 15.1841 9.03396 14.1088 9.03728 12.8023C9.0406 11.4959 10.1159 10.4318 11.4223 10.4351L20.8299 10.459L20.8299 10.4533C22.1022 10.4166 23.1375 9.36951 23.1407 8.08588C23.1416 7.73787 23.0626 7.41248 22.9321 7.10978C22.5577 6.2873 21.7262 5.70898 20.7678 5.70654L2.85404 5.66101C1.54759 5.65769 0.483477 4.58243 0.486798 3.27599C0.490119 1.96954 1.55967 0.905411 2.86612 0.908732L33.8501 0.987489C33.8786 0.987561 33.9071 0.987634 33.9413 0.987721C34.6205 0.903871 35.3223 0.860015 36.0297 0.861813ZM4.485 10.4175L5.68876 10.4205C6.99521 10.4238 8.05932 11.4991 8.056 12.8055C8.05268 14.112 6.98313 15.1761 5.67668 15.1728L4.47292 15.1697C3.16647 15.1664 2.09664 14.0969 2.09996 12.7904C2.10328 11.484 3.17855 10.4141 4.485 10.4175ZM19.3852 19.9428C19.3684 19.8173 19.3516 19.686 19.3348 19.5605C19.3516 19.686 19.3684 19.8173 19.3852 19.9428ZM19.3349 19.5434C19.3238 19.4178 19.307 19.2923 19.2959 19.1667C19.307 19.2923 19.3238 19.4178 19.3349 19.5434ZM23.4071 6.54619C23.6588 6.26158 23.922 5.9827 24.1965 5.71526C23.922 5.9827 23.6588 6.26158 23.4071 6.54619ZM37.239 7.6539C39.0926 7.88111 40.7908 8.62138 42.1915 9.72031L39 12.8956C38.4646 12.5519 37.8662 12.2994 37.2276 12.1552L37.239 7.6539ZM43.9214 11.459C45.0132 12.8653 45.7391 14.5672 45.9626 16.4219L41.4556 16.4105C41.3146 15.7711 41.0651 15.1715 40.7299 14.6343L43.9214 11.459ZM45.9564 18.8751C45.7234 20.7286 44.9889 22.4269 43.89 23.8275L40.7146 20.636C41.0526 20.1006 41.3051 19.5022 41.4494 18.8636L45.9564 18.8751ZM42.1512 25.5574C40.745 26.6492 39.043 27.3808 37.1883 27.5986L37.1998 23.0974C37.8391 22.9564 38.4331 22.7069 38.9759 22.3659L42.1512 25.5574ZM34.7352 27.5924C32.8759 27.3652 31.1777 26.6249 29.7827 25.526L32.9742 22.3507C33.5096 22.6943 34.108 22.9469 34.7466 23.0911L34.7352 27.5924ZM28.0528 23.7873C26.9553 22.381 26.2294 20.6791 26.0059 18.8244L30.5129 18.8358C30.6539 19.4751 30.9034 20.0748 31.2443 20.6119L28.0528 23.7873ZM26.0122 16.3712C26.2451 14.5177 26.9796 12.8194 28.0843 11.4188L31.2596 14.6103C30.9159 15.1457 30.6634 15.7441 30.5191 16.3827L26.0122 16.3712ZM29.823 9.68887C31.2235 8.59706 32.9255 7.86543 34.7859 7.64766L34.7744 12.1489C34.1351 12.2899 33.5354 12.5394 32.9983 12.8804L29.823 9.68887ZM35.9977 13.4642C38.2911 13.47 40.1462 15.3403 40.1404 17.6337C40.1345 19.9271 38.27 21.7879 35.9765 21.7821C33.6774 21.7763 31.8223 19.906 31.8281 17.6126C31.834 15.3192 33.6986 13.4583 35.9977 13.4642ZM36.017 5.8537C42.515 5.87022 47.7731 11.1493 47.7566 17.6531C47.74 24.1568 42.4552 29.4091 35.9572 29.3926C29.4535 29.3761 24.1954 24.0969 24.212 17.5932C24.2285 11.0895 29.5133 5.83717 36.017 5.8537Z" fill="black"/>
</svg>
